<svg xmlns="http://www.w3.org/2000/svg" viewBox="0 0 800 800">
  <rect width="800" height="800" fill="#0a0a0f"/>
  <defs>
    <pattern id="g" width="20" height="20" patternUnits="userSpaceOnUse">
      <path d="M20 0L0 0 0 20" fill="none" stroke="#1a1a2e" stroke-width="0.5"/>
    </pattern>
  </defs>
  <rect width="800" height="800" fill="url(#g)"/>
  <rect x="40" y="40" width="720" height="720" fill="none" stroke="#00ff88" stroke-width="2" rx="4"/>
  <rect x="55" y="55" width="690" height="690" fill="none" stroke="#ff4444" stroke-width="1" opacity="0.5" rx="2"/>
  <rect x="62" y="62" width="676" height="676" fill="none" stroke="#4444ff" stroke-width="1" opacity="0.5" rx="2"/>
  <rect x="180" y="165" width="440" height="335" fill="#0d2a1a" stroke="#00cc66" stroke-width="1.5" rx="2"/>
  <text x="400" y="158" fill="#00cc66" font-family="monospace" font-size="11" text-anchor="middle" font-weight="bold">SYSTOLIC ARRAY 16x16 INT8 MAC</text>
  <line x1="295" y1="165" x2="295" y2="500" stroke="#00aa44" stroke-width="0.4" opacity="0.4"/>
  <line x1="400" y1="165" x2="400" y2="500" stroke="#00aa44" stroke-width="0.4" opacity="0.4"/>
  <line x1="505" y1="165" x2="505" y2="500" stroke="#00aa44" stroke-width="0.4" opacity="0.4"/>
  <line x1="180" y1="277" x2="620" y2="277" stroke="#00aa44" stroke-width="0.4" opacity="0.4"/>
  <line x1="180" y1="388" x2="620" y2="388" stroke="#00aa44" stroke-width="0.4" opacity="0.4"/>
  <text x="400" y="340" fill="#00aa44" font-family="monospace" font-size="10" text-anchor="middle">256 MAC CELLS · 32-bit accumulators</text>
  <rect x="75" y="165" width="95" height="130" fill="#1a1a0d" stroke="#cccc00" stroke-width="1.5" rx="2"/>
  <text x="122" y="228" fill="#cccc00" font-family="monospace" font-size="9" text-anchor="middle">CONTROL</text>
  <text x="122" y="242" fill="#cccc00" font-family="monospace" font-size="9" text-anchor="middle">FSM</text>
  <rect x="75" y="310" width="95" height="190" fill="#1a0d1a" stroke="#cc44cc" stroke-width="1.5" rx="2"/>
  <text x="122" y="398" fill="#cc44cc" font-family="monospace" font-size="9" text-anchor="middle">WEIGHT</text>
  <text x="122" y="412" fill="#cc44cc" font-family="monospace" font-size="9" text-anchor="middle">SRAM</text>
  <text x="122" y="426" fill="#cc44cc" font-family="monospace" font-size="9" text-anchor="middle">256KB</text>
  <rect x="630" y="165" width="95" height="190" fill="#0d1a1a" stroke="#44cccc" stroke-width="1.5" rx="2"/>
  <text x="677" y="250" fill="#44cccc" font-family="monospace" font-size="9" text-anchor="middle">ACT SRAM</text>
  <text x="677" y="264" fill="#44cccc" font-family="monospace" font-size="9" text-anchor="middle">128KB</text>
  <rect x="630" y="370" width="95" height="125" fill="#1a0d0d" stroke="#cc6644" stroke-width="1.5" rx="2"/>
  <text x="677" y="430" fill="#cc6644" font-family="monospace" font-size="9" text-anchor="middle">OUTPUT</text>
  <text x="677" y="444" fill="#cc6644" font-family="monospace" font-size="9" text-anchor="middle">BUFFER</text>
  <rect x="180" y="515" width="210" height="85" fill="#1a1a1a" stroke="#8888ff" stroke-width="1.5" rx="2"/>
  <text x="285" y="554" fill="#8888ff" font-family="monospace" font-size="9" text-anchor="middle">DMA ENGINE · AXI4-128b</text>
  <rect x="405" y="515" width="155" height="85" fill="#1a0d1a" stroke="#ff88cc" stroke-width="1.5" rx="2"/>
  <text x="482" y="554" fill="#ff88cc" font-family="monospace" font-size="9" text-anchor="middle">QUANT / DEQUANT</text>
  <rect x="75" y="515" width="95" height="85" fill="#0d1a0d" stroke="#44ff44" stroke-width="1.5" rx="2"/>
  <text x="122" y="554" fill="#44ff44" font-family="monospace" font-size="9" text-anchor="middle">MMCM</text>
  <text x="122" y="568" fill="#44ff44" font-family="monospace" font-size="9" text-anchor="middle">250 MHz</text>
  <line x1="170" y1="230" x2="180" y2="230" stroke="#cccc00" stroke-width="2" opacity="0.8"/>
  <line x1="170" y1="400" x2="180" y2="400" stroke="#cc44cc" stroke-width="2" opacity="0.8"/>
  <line x1="620" y1="260" x2="630" y2="260" stroke="#44cccc" stroke-width="2" opacity="0.8"/>
  <line x1="620" y1="432" x2="630" y2="432" stroke="#cc6644" stroke-width="2" opacity="0.8"/>
  <g fill="#555" stroke="#888" stroke-width="0.5">
    <rect x="70" y="44" width="12" height="9" rx="1"/><rect x="140" y="44" width="12" height="9" rx="1"/><rect x="210" y="44" width="12" height="9" rx="1"/>
    <rect x="280" y="44" width="12" height="9" rx="1"/><rect x="350" y="44" width="12" height="9" rx="1"/><rect x="420" y="44" width="12" height="9" rx="1"/>
    <rect x="490" y="44" width="12" height="9" rx="1"/><rect x="560" y="44" width="12" height="9" rx="1"/><rect x="630" y="44" width="12" height="9" rx="1"/>
    <rect x="700" y="44" width="12" height="9" rx="1"/>
    <rect x="70" y="747" width="12" height="9" rx="1"/><rect x="210" y="747" width="12" height="9" rx="1"/>
    <rect x="350" y="747" width="12" height="9" rx="1"/><rect x="490" y="747" width="12" height="9" rx="1"/>
    <rect x="630" y="747" width="12" height="9" rx="1"/><rect x="700" y="747" width="12" height="9" rx="1"/>
    <rect x="44" y="70" width="9" height="12" rx="1"/><rect x="44" y="210" width="9" height="12" rx="1"/>
    <rect x="44" y="350" width="9" height="12" rx="1"/><rect x="44" y="490" width="9" height="12" rx="1"/>
    <rect x="44" y="630" width="9" height="12" rx="1"/>
    <rect x="747" y="70" width="9" height="12" rx="1"/><rect x="747" y="210" width="9" height="12" rx="1"/>
    <rect x="747" y="350" width="9" height="12" rx="1"/><rect x="747" y="490" width="9" height="12" rx="1"/>
    <rect x="747" y="630" width="9" height="12" rx="1"/>
  </g>
  <text x="400" y="778" fill="#555" font-family="monospace" font-size="10" text-anchor="middle">TensorRail Mini  |  conceptual ASIC floorplan  |  not a GDS/OAS preview</text>
  <text x="400" y="793" fill="#333" font-family="monospace" font-size="8" text-anchor="middle">Run OpenLane CI for real GDS, DRC, LVS, STA, and power evidence</text>
</svg>
